<mxfile host="Electron" agent="Mozilla/5.0 (Macintosh; Intel Mac OS X 10_15_7) AppleWebKit/537.36 (KHTML, like Gecko) draw.io/27.0.5 Chrome/134.0.6998.205 Electron/35.3.0 Safari/537.36" version="27.0.5">
  <diagram name="Page-1" id="RbxCdI34Sj1kPQ7Frh3S">
    <mxGraphModel dx="946" dy="584" grid="1" gridSize="10" guides="1" tooltips="1" connect="1" arrows="1" fold="1" page="1" pageScale="1" pageWidth="850" pageHeight="1100" math="0" shadow="0">
      <root>
        <mxCell id="0" />
        <mxCell id="1" parent="0" />
        <mxCell id="ugGrOQstR5L4s_zac0gk-50" value="op -1" style="rounded=0;whiteSpace=wrap;html=1;fillColor=#d5e8d4;strokeColor=#82b366;fontSize=15;" parent="1" vertex="1">
          <mxGeometry x="180" y="200" width="520" height="40" as="geometry" />
        </mxCell>
        <mxCell id="ugGrOQstR5L4s_zac0gk-53" value="op 1" style="rounded=0;whiteSpace=wrap;html=1;fillColor=#b0e3e6;strokeColor=#0e8088;fontSize=15;" parent="1" vertex="1">
          <mxGeometry x="180" y="320" width="520" height="40" as="geometry" />
        </mxCell>
        <mxCell id="ugGrOQstR5L4s_zac0gk-54" value="op 2" style="rounded=0;whiteSpace=wrap;html=1;fillColor=#b0e3e6;strokeColor=#0e8088;fontSize=15;" parent="1" vertex="1">
          <mxGeometry x="180" y="360" width="520" height="40" as="geometry" />
        </mxCell>
        <mxCell id="ugGrOQstR5L4s_zac0gk-55" value="op -2" style="rounded=0;whiteSpace=wrap;html=1;fillColor=#d5e8d4;strokeColor=#82b366;fontSize=15;" parent="1" vertex="1">
          <mxGeometry x="180" y="160" width="520" height="40" as="geometry" />
        </mxCell>
        <mxCell id="ugGrOQstR5L4s_zac0gk-1" value="setRelease" style="rounded=0;whiteSpace=wrap;html=1;fillColor=#f8cecc;strokeColor=#b85450;fontSize=15;" parent="1" vertex="1">
          <mxGeometry x="180" y="280" width="520" height="40" as="geometry" />
        </mxCell>
        <mxCell id="cBVyUDvvDOi_Fv5vH1XP-2" value="..." style="rounded=0;whiteSpace=wrap;html=1;fillColor=#d5e8d4;strokeColor=#82b366;fontSize=15;" parent="1" vertex="1">
          <mxGeometry x="180" y="120" width="520" height="40" as="geometry" />
        </mxCell>
        <mxCell id="cBVyUDvvDOi_Fv5vH1XP-3" value="..." style="rounded=0;whiteSpace=wrap;html=1;fillColor=#b0e3e6;strokeColor=#0e8088;fontSize=15;" parent="1" vertex="1">
          <mxGeometry x="180" y="400" width="520" height="40" as="geometry" />
        </mxCell>
        <mxCell id="cBVyUDvvDOi_Fv5vH1XP-26" value="" style="shape=flexArrow;endArrow=classic;html=1;rounded=0;endWidth=22.38095238095238;endSize=6.347619047619047;fillColor=#60a917;strokeColor=#2D7600;" parent="1" edge="1">
          <mxGeometry width="50" height="50" relative="1" as="geometry">
            <mxPoint x="120" y="360" as="sourcePoint" />
            <mxPoint x="120" y="200" as="targetPoint" />
          </mxGeometry>
        </mxCell>
        <mxCell id="cBVyUDvvDOi_Fv5vH1XP-27" value="" style="shape=flexArrow;endArrow=classic;html=1;rounded=0;endWidth=22.38095238095238;endSize=6.347619047619047;fillColor=#e51400;strokeColor=#B20000;" parent="1" edge="1">
          <mxGeometry width="50" height="50" relative="1" as="geometry">
            <mxPoint x="759.5" y="200" as="sourcePoint" />
            <mxPoint x="760" y="360" as="targetPoint" />
          </mxGeometry>
        </mxCell>
        <mxCell id="cBVyUDvvDOi_Fv5vH1XP-28" value="" style="shape=umlDestroy;whiteSpace=wrap;html=1;strokeWidth=8;targetShapes=umlLifeline;" parent="1" vertex="1">
          <mxGeometry x="730" y="230" width="60" height="60" as="geometry" />
        </mxCell>
        <mxCell id="xL4sPGeLYEzxOQpLDoR8-1" value="" style="group;rotation=-180;" vertex="1" connectable="0" parent="1">
          <mxGeometry x="180" y="240" width="520" height="40" as="geometry" />
        </mxCell>
        <mxCell id="ugGrOQstR5L4s_zac0gk-2" value="" style="triangle;whiteSpace=wrap;html=1;direction=south;fillColor=#f8cecc;strokeColor=#b85450;rotation=-180;" parent="xL4sPGeLYEzxOQpLDoR8-1" vertex="1">
          <mxGeometry x="510" width="10" height="40" as="geometry" />
        </mxCell>
        <mxCell id="cBVyUDvvDOi_Fv5vH1XP-8" value="" style="triangle;whiteSpace=wrap;html=1;direction=south;fillColor=#f8cecc;strokeColor=#b85450;rotation=-180;" parent="xL4sPGeLYEzxOQpLDoR8-1" vertex="1">
          <mxGeometry x="480" width="10" height="40" as="geometry" />
        </mxCell>
        <mxCell id="cBVyUDvvDOi_Fv5vH1XP-10" value="" style="triangle;whiteSpace=wrap;html=1;direction=south;fillColor=#f8cecc;strokeColor=#b85450;rotation=-180;" parent="xL4sPGeLYEzxOQpLDoR8-1" vertex="1">
          <mxGeometry x="450" width="10" height="40" as="geometry" />
        </mxCell>
        <mxCell id="cBVyUDvvDOi_Fv5vH1XP-11" value="" style="triangle;whiteSpace=wrap;html=1;direction=south;fillColor=#f8cecc;strokeColor=#b85450;rotation=-180;" parent="xL4sPGeLYEzxOQpLDoR8-1" vertex="1">
          <mxGeometry x="420" width="10" height="40" as="geometry" />
        </mxCell>
        <mxCell id="cBVyUDvvDOi_Fv5vH1XP-12" value="" style="triangle;whiteSpace=wrap;html=1;direction=south;fillColor=#f8cecc;strokeColor=#b85450;rotation=-180;" parent="xL4sPGeLYEzxOQpLDoR8-1" vertex="1">
          <mxGeometry x="390" width="10" height="40" as="geometry" />
        </mxCell>
        <mxCell id="cBVyUDvvDOi_Fv5vH1XP-13" value="" style="triangle;whiteSpace=wrap;html=1;direction=south;fillColor=#f8cecc;strokeColor=#b85450;rotation=-180;" parent="xL4sPGeLYEzxOQpLDoR8-1" vertex="1">
          <mxGeometry x="360" width="10" height="40" as="geometry" />
        </mxCell>
        <mxCell id="cBVyUDvvDOi_Fv5vH1XP-14" value="" style="triangle;whiteSpace=wrap;html=1;direction=south;fillColor=#f8cecc;strokeColor=#b85450;rotation=-180;" parent="xL4sPGeLYEzxOQpLDoR8-1" vertex="1">
          <mxGeometry x="330" width="10" height="40" as="geometry" />
        </mxCell>
        <mxCell id="cBVyUDvvDOi_Fv5vH1XP-15" value="" style="triangle;whiteSpace=wrap;html=1;direction=south;fillColor=#f8cecc;strokeColor=#b85450;rotation=-180;" parent="xL4sPGeLYEzxOQpLDoR8-1" vertex="1">
          <mxGeometry x="300" width="10" height="40" as="geometry" />
        </mxCell>
        <mxCell id="cBVyUDvvDOi_Fv5vH1XP-16" value="" style="triangle;whiteSpace=wrap;html=1;direction=south;fillColor=#f8cecc;strokeColor=#b85450;rotation=-180;" parent="xL4sPGeLYEzxOQpLDoR8-1" vertex="1">
          <mxGeometry x="270" width="10" height="40" as="geometry" />
        </mxCell>
        <mxCell id="cBVyUDvvDOi_Fv5vH1XP-17" value="" style="triangle;whiteSpace=wrap;html=1;direction=south;fillColor=#f8cecc;strokeColor=#b85450;rotation=-180;" parent="xL4sPGeLYEzxOQpLDoR8-1" vertex="1">
          <mxGeometry x="240" width="10" height="40" as="geometry" />
        </mxCell>
        <mxCell id="cBVyUDvvDOi_Fv5vH1XP-18" value="" style="triangle;whiteSpace=wrap;html=1;direction=south;fillColor=#f8cecc;strokeColor=#b85450;rotation=-180;" parent="xL4sPGeLYEzxOQpLDoR8-1" vertex="1">
          <mxGeometry x="210" width="10" height="40" as="geometry" />
        </mxCell>
        <mxCell id="cBVyUDvvDOi_Fv5vH1XP-19" value="" style="triangle;whiteSpace=wrap;html=1;direction=south;fillColor=#f8cecc;strokeColor=#b85450;rotation=-180;" parent="xL4sPGeLYEzxOQpLDoR8-1" vertex="1">
          <mxGeometry x="180" width="10" height="40" as="geometry" />
        </mxCell>
        <mxCell id="cBVyUDvvDOi_Fv5vH1XP-20" value="" style="triangle;whiteSpace=wrap;html=1;direction=south;fillColor=#f8cecc;strokeColor=#b85450;rotation=-180;" parent="xL4sPGeLYEzxOQpLDoR8-1" vertex="1">
          <mxGeometry x="150" width="10" height="40" as="geometry" />
        </mxCell>
        <mxCell id="cBVyUDvvDOi_Fv5vH1XP-21" value="" style="triangle;whiteSpace=wrap;html=1;direction=south;fillColor=#f8cecc;strokeColor=#b85450;rotation=-180;" parent="xL4sPGeLYEzxOQpLDoR8-1" vertex="1">
          <mxGeometry x="120" width="10" height="40" as="geometry" />
        </mxCell>
        <mxCell id="cBVyUDvvDOi_Fv5vH1XP-22" value="" style="triangle;whiteSpace=wrap;html=1;direction=south;fillColor=#f8cecc;strokeColor=#b85450;rotation=-180;" parent="xL4sPGeLYEzxOQpLDoR8-1" vertex="1">
          <mxGeometry x="90" width="10" height="40" as="geometry" />
        </mxCell>
        <mxCell id="cBVyUDvvDOi_Fv5vH1XP-23" value="" style="triangle;whiteSpace=wrap;html=1;direction=south;fillColor=#f8cecc;strokeColor=#b85450;rotation=-180;" parent="xL4sPGeLYEzxOQpLDoR8-1" vertex="1">
          <mxGeometry x="60" width="10" height="40" as="geometry" />
        </mxCell>
        <mxCell id="cBVyUDvvDOi_Fv5vH1XP-24" value="" style="triangle;whiteSpace=wrap;html=1;direction=south;fillColor=#f8cecc;strokeColor=#b85450;rotation=-180;" parent="xL4sPGeLYEzxOQpLDoR8-1" vertex="1">
          <mxGeometry x="30" width="10" height="40" as="geometry" />
        </mxCell>
        <mxCell id="cBVyUDvvDOi_Fv5vH1XP-25" value="" style="triangle;whiteSpace=wrap;html=1;direction=south;fillColor=#f8cecc;strokeColor=#b85450;rotation=-180;" parent="xL4sPGeLYEzxOQpLDoR8-1" vertex="1">
          <mxGeometry width="10" height="40" as="geometry" />
        </mxCell>
      </root>
    </mxGraphModel>
  </diagram>
</mxfile>
